<svg width="160" height="160" viewBox="0 0 160 160" fill="none" xmlns="http://www.w3.org/2000/svg">
<g id="Icon / 80px / ic-complexify">
<path id="Stroke 2" d="M33.1914 75.1152C33.1914 49.2632 54.1494 30.3072 79.9994 30.3072C105.851 30.3072 126.809 49.2632 126.809 75.1152" stroke="#D8262C" stroke-width="4"/>
<path id="Stroke 4" fill-rule="evenodd" clip-rule="evenodd" d="M20 136H140V86H20V136Z" stroke="#D8262C" stroke-width="4"/>
<path id="Fill 6" fill-rule="evenodd" clip-rule="evenodd" d="M118.07 116.305C121.29 116.305 123.9 113.695 123.9 110.477C123.9 107.257 121.29 104.647 118.07 104.647C114.852 104.647 112.24 107.257 112.24 110.477C112.24 113.695 114.852 116.305 118.07 116.305Z" fill="#D8262C"/>
<path id="Fill 7" fill-rule="evenodd" clip-rule="evenodd" d="M92.8065 116.305C96.0265 116.305 98.6365 113.695 98.6365 110.477C98.6365 107.257 96.0265 104.647 92.8065 104.647C89.5885 104.647 86.9785 107.257 86.9785 110.477C86.9785 113.695 89.5885 116.305 92.8065 116.305Z" fill="#D8262C"/>
<path id="Fill 8" fill-rule="evenodd" clip-rule="evenodd" d="M67.5448 116.305C70.7628 116.305 73.3748 113.695 73.3748 110.477C73.3748 107.257 70.7628 104.647 67.5448 104.647C64.3248 104.647 61.7148 107.257 61.7148 110.477C61.7148 113.695 64.3248 116.305 67.5448 116.305Z" fill="#D8262C"/>
<path id="Fill 9" fill-rule="evenodd" clip-rule="evenodd" d="M42.2812 116.305C45.4992 116.305 48.1112 113.695 48.1112 110.477C48.1112 107.257 45.4992 104.647 42.2812 104.647C39.0612 104.647 36.4512 107.257 36.4512 110.477C36.4512 113.695 39.0612 116.305 42.2812 116.305Z" fill="#D8262C"/>
<path id="Stroke 10" d="M110.6 40.455L129.226 21.831" stroke="#D8262C" stroke-width="4" stroke-linecap="round"/>
<path id="Stroke 11" d="M49.4678 40.455L30.8438 21.831" stroke="#D8262C" stroke-width="4" stroke-linecap="round"/>
<path id="Fill 12" fill-rule="evenodd" clip-rule="evenodd" d="M100.249 66.6972C103.587 66.6972 106.293 63.9912 106.293 60.6552C106.293 57.3152 103.587 54.6092 100.249 54.6092C96.9111 54.6092 94.2051 57.3152 94.2051 60.6552C94.2051 63.9912 96.9111 66.6972 100.249 66.6972Z" fill="#D8262C"/>
<path id="Fill 13" fill-rule="evenodd" clip-rule="evenodd" d="M59.7491 66.6972C63.0871 66.6972 65.7931 63.9912 65.7931 60.6552C65.7931 57.3152 63.0871 54.6092 59.7491 54.6092C56.4111 54.6092 53.7051 57.3152 53.7051 60.6552C53.7051 63.9912 56.4111 66.6972 59.7491 66.6972Z" fill="#D8262C"/>
</g>
</svg>
